<svg width="195" height="105" viewBox="0 0 195 105" fill="none" xmlns="http://www.w3.org/2000/svg">
<g filter="url(#filter0_b_551_5117)">
<rect width="195" height="105" fill="url(#paint0_linear_551_5117)"/>
<rect x="0.5" y="0.5" width="194" height="104" stroke="#25262C"/>
</g>
<g clip-path="url(#clip0_551_5117)">
<path fill-rule="evenodd" clip-rule="evenodd" d="M90.3997 60.1976L90.4264 60.3044C90.0858 60.5179 89.5854 60.6296 88.9252 60.6393C88.2651 60.649 87.5451 60.605 86.7652 60.5073C85.4346 62.284 83.5796 63.191 81.2003 63.2282C79.1784 63.2936 77.533 62.6964 76.264 61.4365C74.8034 62.6497 73.4287 63.2142 72.1401 63.13C70.2071 63.0038 70.0819 60.3883 70.0819 59.466C70.0819 58.8511 70.2365 57.615 70.5459 55.7578C70.9643 53.834 70.687 52.9071 69.7139 52.9773C68.3339 52.8391 66.5692 56.8305 66.5692 57.9787C66.5276 59.4572 67.2432 60.4113 67.2097 61.4365C67.0922 62.6039 64.4831 63.5156 64.0049 63.5156C63.5267 63.5156 63.0808 63.2282 62.8546 61.8162C62.6284 60.4042 63.2167 53.4121 63.2167 52.9773C63.2167 52.5426 63.0248 51.8952 62.3022 51.8952C60.5772 52.3322 59.153 55.9903 59.0512 57.4818C58.9494 58.9733 59.697 61.0152 59.6565 61.5303C59.6159 62.0453 57.5937 63.4958 56.4839 63.5156C55.7441 63.5289 55.35 62.9624 55.3017 61.8162C53.8238 62.7575 52.6065 63.1954 51.6497 63.13C50.7929 63.1396 50.1004 62.2257 49.5723 60.3883C48.323 62.4701 46.5027 63.4167 44.1115 63.2282C38.6842 62.7314 39.7144 57.289 40.6125 54.346C42.8847 49.6591 46.1434 47.9297 50.3886 49.1577C50.7645 48.5506 51.1593 48.2472 51.5729 48.2476C53.0775 48.4729 54.2979 50.2345 54.2979 50.8922C54.2979 51.3307 53.8664 52.1447 53.0035 53.3341C52.8379 55.5113 52.8379 57.4309 53.0035 59.0927C53.0999 60.0385 53.8388 59.8211 55.2202 58.4403C55.1986 57.5859 55.2671 56.2726 55.4257 54.5005C55.6636 51.8424 57.624 48.0223 58.6819 48.0223C59.3871 48.0223 60.0741 48.8346 60.7427 50.4591C61.8212 49.1768 62.9086 48.5778 64.0049 48.6621C66.1031 48.8631 67.2149 49.9763 67.3401 52.0016C68.6579 50.3134 70.1093 49.5515 71.6943 49.7159C74.5129 50.0197 74.7587 51.3412 74.8313 53.2166C74.9039 55.0919 73.58 58.5325 73.73 59.466C73.8061 59.8346 74.2376 59.7102 75.0246 59.0927C74.8957 58.4998 74.8313 57.8551 74.8313 57.1587C74.9222 52.0007 78.4605 48.9911 82.0981 48.6621C85.7357 48.333 87.1462 50.084 87.1462 50.4591C87.1462 50.7091 86.7669 50.8535 86.0082 50.8922C83.738 50.6557 81.9868 51.2373 80.7545 52.6373C78.6568 54.9446 78.6667 58.302 80.3145 59.466C81.4131 60.242 82.7637 60.242 84.3663 59.466C83.0212 58.4148 82.3452 57.0846 82.3383 55.4753C82.3383 53.4689 83.6266 51.6143 86.0082 51.4938C88.3899 51.3733 88.9078 53.0605 89.0378 54.5005C89.1246 55.4606 88.8913 56.5714 88.3382 57.833L88.9252 57.8065C89.2204 57.7534 89.4929 57.6753 89.7429 57.5721L89.8782 58.1131C89.6352 56.2683 89.828 54.2146 90.0924 52.3032C91.7021 45.4742 95.1536 41.6963 100.447 40.9694C102.598 40.7468 103.661 41.9011 103.638 44.4323C103.638 46.0987 102.59 47.5611 101.657 47.5611C100.723 47.5611 100.479 46.0937 98.4692 46.1407C95.4291 46.6088 94.5731 51.9595 94.2698 53.9188C93.9665 55.8781 94.702 59.217 97.7652 59.6152C100.828 60.0135 103.913 54.8334 104.923 53.7501C105.933 52.6668 107.23 45.5639 110.134 45.7409C111.228 46.4469 109.248 53.1118 108.857 54.8334C108.466 56.5549 108.601 59.7701 108.601 61.4698C108.601 63.1696 106.451 63.9537 105.221 63.9537C104.281 63.9486 103.845 62.9389 103.913 60.9246C101.513 63.1757 98.9749 64.189 96.3004 63.9645C92.9402 63.7192 91.2129 62.2327 90.3997 60.1976ZM152.787 63.2271C151.186 63.2271 149.888 61.8933 149.888 60.248C149.888 58.6027 151.186 57.2688 152.787 57.2688C154.388 57.2688 155.686 58.6027 155.686 60.248C155.686 61.8933 154.388 63.2271 152.787 63.2271ZM103.691 45.6987C104.484 43.0446 107.245 41.4682 111.976 40.9694C115.19 41.0853 117.418 41.8735 118.662 43.334C119.751 41.7662 121.209 41.0295 123.036 41.1239C125.234 40.9802 126.371 42.2857 126.445 45.0404C127.943 42.3131 129.832 40.9561 132.114 40.9694C135.047 41.1651 136.401 43.1583 136.175 46.949C137.648 45.0402 139.156 44.157 140.701 44.2992C144.373 44.4463 144.909 47.5714 143.629 53.9846C143.433 54.9651 143.09 56.5746 142.599 58.8131C142.58 59.9384 142.923 60.3832 143.629 60.1475C144.687 59.7939 147.295 56.511 147.668 56.511C148.041 56.511 148.54 57.1856 148.366 57.9673C148.192 58.7489 146.336 63.4846 141.397 63.7466C136.108 63.0743 139.691 56.6773 140.336 52.9241C140.701 51.8544 141.284 48.3938 139.999 48.3938C138.435 48.3199 136.103 51.7788 135.204 54.657C133.498 59.7608 134.515 60.6279 134.345 61.4601C134.021 62.984 133.12 63.8345 131.64 64.0118C129.42 64.2778 130.053 61.3822 130.214 60.1475C130.685 56.8743 134.811 46.0866 131.64 45.0404C126.937 44.6659 124.97 56.9104 124.97 57.4389C124.769 58.3982 127.49 62.8634 122.583 64.0118C121.257 64.0006 120.628 63.3176 120.697 61.9627C118.802 63.255 117.335 63.8496 116.298 63.7466C113.218 63.5095 113.372 59.5889 113.016 57.4389C112.66 55.2888 112.521 54.2159 112.521 54.2159C111.198 53.9762 110.558 53.4614 110.601 52.6716C110.697 51.215 111.797 50.8339 113.901 51.5283C115.336 50.0905 115.951 48.6497 115.746 47.206C115.261 43.1408 111.172 44.0184 109.727 44.0184C108.282 44.0184 104.803 45.9802 104.803 45.9802C104.469 46.1055 104.202 46.122 104.001 46.0297C103.8 45.9374 103.696 45.8271 103.691 45.6987ZM119.927 45.1474C120.223 46.1868 120.223 47.4092 119.927 48.8146C119.738 50.7145 118.276 52.3911 115.539 53.8443C115.923 54.7877 116.173 55.4772 116.291 55.913C116.946 58.3305 116.944 59.6646 117.991 60.1948C118.472 60.4165 119.44 59.7242 120.895 58.1179C121.533 53.9742 121.979 51.3065 122.233 50.1149C122.614 48.3274 123.335 44.3456 121.545 44.2243C121.013 44.2243 120.474 44.532 119.927 45.1474ZM49.9577 50.8244C49.3766 50.8041 48.4432 51.1907 47.1574 51.9842C45.798 52.739 44.5141 54.6264 44.2817 55.945C44.0492 57.2637 43.5986 59.9051 45.8182 60.0725C47.2534 60.2005 48.463 59.0553 49.4471 56.6371C49.5598 55.8911 49.5916 55.1136 49.5426 54.3045C49.5426 53.6362 49.6809 52.4762 49.9577 50.8244ZM86.4831 56.9808C86.8624 56.075 87.052 55.4306 87.052 55.0476C87.052 54.4731 86.8766 53.9188 86.4831 53.9188C86.0897 53.9188 85.669 54.3235 85.7538 55.2C85.8289 55.9787 86.072 56.5723 86.4831 56.9808Z" fill="#87D6F7"/>
<mask id="mask0_551_5117" style="mask-type:alpha" maskUnits="userSpaceOnUse" x="39" y="40" width="117" height="25">
<path fill-rule="evenodd" clip-rule="evenodd" d="M90.3997 60.1976L90.4264 60.3044C90.0858 60.5179 89.5854 60.6296 88.9252 60.6393C88.2651 60.649 87.5451 60.605 86.7652 60.5073C85.4346 62.284 83.5796 63.191 81.2003 63.2282C79.1784 63.2936 77.533 62.6964 76.264 61.4365C74.8034 62.6497 73.4287 63.2142 72.1401 63.13C70.2071 63.0038 70.0819 60.3883 70.0819 59.466C70.0819 58.8511 70.2365 57.615 70.5459 55.7578C70.9643 53.834 70.687 52.9071 69.7139 52.9773C68.3339 52.8391 66.5692 56.8305 66.5692 57.9787C66.5276 59.4572 67.2432 60.4113 67.2097 61.4365C67.0922 62.6039 64.4831 63.5156 64.0049 63.5156C63.5267 63.5156 63.0808 63.2282 62.8546 61.8162C62.6284 60.4042 63.2167 53.4121 63.2167 52.9773C63.2167 52.5426 63.0248 51.8952 62.3022 51.8952C60.5772 52.3322 59.153 55.9903 59.0512 57.4818C58.9494 58.9733 59.697 61.0152 59.6565 61.5303C59.6159 62.0453 57.5937 63.4958 56.4839 63.5156C55.7441 63.5289 55.35 62.9624 55.3017 61.8162C53.8238 62.7575 52.6065 63.1954 51.6497 63.13C50.7929 63.1396 50.1004 62.2257 49.5723 60.3883C48.323 62.4701 46.5027 63.4167 44.1115 63.2282C38.6842 62.7314 39.7144 57.289 40.6125 54.346C42.8847 49.6591 46.1434 47.9297 50.3886 49.1577C50.7645 48.5506 51.1593 48.2472 51.5729 48.2476C53.0775 48.4729 54.2979 50.2345 54.2979 50.8922C54.2979 51.3307 53.8664 52.1447 53.0035 53.3341C52.8379 55.5113 52.8379 57.4309 53.0035 59.0927C53.0999 60.0385 53.8388 59.8211 55.2202 58.4403C55.1986 57.5859 55.2671 56.2726 55.4257 54.5005C55.6636 51.8424 57.624 48.0223 58.6819 48.0223C59.3871 48.0223 60.0741 48.8346 60.7427 50.4591C61.8212 49.1768 62.9086 48.5778 64.0049 48.6621C66.1031 48.8631 67.2149 49.9763 67.3401 52.0016C68.6579 50.3134 70.1093 49.5515 71.6943 49.7159C74.5129 50.0197 74.7587 51.3412 74.8313 53.2166C74.9039 55.0919 73.58 58.5325 73.73 59.466C73.8061 59.8346 74.2376 59.7102 75.0246 59.0927C74.8957 58.4998 74.8313 57.8551 74.8313 57.1587C74.9222 52.0007 78.4605 48.9911 82.0981 48.6621C85.7357 48.333 87.1462 50.084 87.1462 50.4591C87.1462 50.7091 86.7669 50.8535 86.0082 50.8922C83.738 50.6557 81.9868 51.2373 80.7545 52.6373C78.6568 54.9446 78.6667 58.302 80.3145 59.466C81.4131 60.242 82.7637 60.242 84.3663 59.466C83.0212 58.4148 82.3452 57.0846 82.3383 55.4753C82.3383 53.4689 83.6266 51.6143 86.0082 51.4938C88.3899 51.3733 88.9078 53.0605 89.0378 54.5005C89.1246 55.4606 88.8913 56.5714 88.3382 57.833L88.9252 57.8065C89.2204 57.7534 89.4929 57.6753 89.7429 57.5721L89.8782 58.1131C89.6352 56.2683 89.828 54.2146 90.0924 52.3032C91.7021 45.4742 95.1536 41.6963 100.447 40.9694C102.598 40.7468 103.661 41.9011 103.638 44.4323C103.638 46.0987 102.59 47.5611 101.657 47.5611C100.723 47.5611 100.479 46.0937 98.4692 46.1407C95.4291 46.6088 94.5731 51.9595 94.2698 53.9188C93.9665 55.8781 94.702 59.217 97.7652 59.6152C100.828 60.0135 103.913 54.8334 104.923 53.7501C105.933 52.6668 107.23 45.5639 110.134 45.7409C111.228 46.4469 109.248 53.1118 108.857 54.8334C108.466 56.5549 108.601 59.7701 108.601 61.4698C108.601 63.1696 106.451 63.9537 105.221 63.9537C104.281 63.9486 103.845 62.9389 103.913 60.9246C101.513 63.1757 98.9749 64.189 96.3004 63.9645C92.9402 63.7192 91.2129 62.2327 90.3997 60.1976ZM152.787 63.2271C151.186 63.2271 149.888 61.8933 149.888 60.248C149.888 58.6027 151.186 57.2688 152.787 57.2688C154.388 57.2688 155.686 58.6027 155.686 60.248C155.686 61.8933 154.388 63.2271 152.787 63.2271ZM103.691 45.6987C104.484 43.0446 107.245 41.4682 111.976 40.9694C115.19 41.0853 117.418 41.8735 118.662 43.334C119.751 41.7662 121.209 41.0295 123.036 41.1239C125.234 40.9802 126.371 42.2857 126.445 45.0404C127.943 42.3131 129.832 40.9561 132.114 40.9694C135.047 41.1651 136.401 43.1583 136.175 46.949C137.648 45.0402 139.156 44.157 140.701 44.2992C144.373 44.4463 144.909 47.5714 143.629 53.9846C143.433 54.9651 143.09 56.5746 142.599 58.8131C142.58 59.9384 142.923 60.3832 143.629 60.1475C144.687 59.7939 147.295 56.511 147.668 56.511C148.041 56.511 148.54 57.1856 148.366 57.9673C148.192 58.7489 146.336 63.4846 141.397 63.7466C136.108 63.0743 139.691 56.6773 140.336 52.9241C140.701 51.8544 141.284 48.3938 139.999 48.3938C138.435 48.3199 136.103 51.7788 135.204 54.657C133.498 59.7608 134.515 60.6279 134.345 61.4601C134.021 62.984 133.12 63.8345 131.64 64.0118C129.42 64.2778 130.053 61.3822 130.214 60.1475C130.685 56.8743 134.811 46.0866 131.64 45.0404C126.937 44.6659 124.97 56.9104 124.97 57.4389C124.769 58.3982 127.49 62.8634 122.583 64.0118C121.257 64.0006 120.628 63.3176 120.697 61.9627C118.802 63.255 117.335 63.8496 116.298 63.7466C113.218 63.5095 113.372 59.5889 113.016 57.4389C112.66 55.2888 112.521 54.2159 112.521 54.2159C111.198 53.9762 110.558 53.4614 110.601 52.6716C110.697 51.215 111.797 50.8339 113.901 51.5283C115.336 50.0905 115.951 48.6497 115.746 47.206C115.261 43.1408 111.172 44.0184 109.727 44.0184C108.282 44.0184 104.803 45.9802 104.803 45.9802C104.469 46.1055 104.202 46.122 104.001 46.0297C103.8 45.9374 103.696 45.8271 103.691 45.6987ZM119.927 45.1474C120.223 46.1868 120.223 47.4092 119.927 48.8146C119.738 50.7145 118.276 52.3911 115.539 53.8443C115.923 54.7877 116.173 55.4772 116.291 55.913C116.946 58.3305 116.944 59.6646 117.991 60.1948C118.472 60.4165 119.44 59.7242 120.895 58.1179C121.533 53.9742 121.979 51.3065 122.233 50.1149C122.614 48.3274 123.335 44.3456 121.545 44.2243C121.013 44.2243 120.474 44.532 119.927 45.1474ZM49.9577 50.8244C49.3766 50.8041 48.4432 51.1907 47.1574 51.9842C45.798 52.739 44.5141 54.6264 44.2817 55.945C44.0492 57.2637 43.5986 59.9051 45.8182 60.0725C47.2534 60.2005 48.463 59.0553 49.4471 56.6371C49.5598 55.8911 49.5916 55.1136 49.5426 54.3045C49.5426 53.6362 49.6809 52.4762 49.9577 50.8244ZM86.4831 56.9808C86.8624 56.075 87.052 55.4306 87.052 55.0476C87.052 54.4731 86.8766 53.9188 86.4831 53.9188C86.0897 53.9188 85.669 54.3235 85.7538 55.2C85.8289 55.9787 86.072 56.5723 86.4831 56.9808Z" fill="#0D0C0C"/>
</mask>
<g mask="url(#mask0_551_5117)">
<path d="M89.9702 53.0955C88.8118 54.2859 89.9702 58.8494 90.5495 60.8336L83.0198 66.1907C73.3663 65.7939 52.3217 65.2384 45.3712 66.1907C36.6831 67.3812 37.2623 49.5241 39 46.5479C40.7376 43.5717 61.0099 43.5717 73.1732 42.9764C85.3366 42.3812 89.391 52.5002 89.9702 53.0955Z" fill="#C7C8CA"/>
</g>
</g>
<defs>
<filter id="filter0_b_551_5117" x="-15" y="-15" width="225" height="135" filterUnits="userSpaceOnUse" color-interpolation-filters="sRGB">
<feFlood flood-opacity="0" result="BackgroundImageFix"/>
<feGaussianBlur in="BackgroundImage" stdDeviation="7.5"/>
<feComposite in2="SourceAlpha" operator="in" result="effect1_backgroundBlur_551_5117"/>
<feBlend mode="normal" in="SourceGraphic" in2="effect1_backgroundBlur_551_5117" result="shape"/>
</filter>
<linearGradient id="paint0_linear_551_5117" x1="10.2537" y1="-3.73932" x2="57.9878" y2="167.692" gradientUnits="userSpaceOnUse">
<stop stop-color="#FFF6E9" stop-opacity="0.1"/>
<stop offset="0.266225" stop-color="#1A1D23" stop-opacity="0.1"/>
<stop offset="0.520955" stop-color="#1A1D23" stop-opacity="0.1"/>
<stop offset="0.776175" stop-color="#1A1D23" stop-opacity="0.2"/>
<stop offset="1" stop-color="#1A1D23" stop-opacity="0.2"/>
</linearGradient>
<clipPath id="clip0_551_5117">
<rect width="117" height="25" fill="white" transform="translate(39 40)"/>
</clipPath>
</defs>
</svg>
