<svg width="200" height="100" viewBox="0 0 200 100" fill="none" xmlns="http://www.w3.org/2000/svg">
<rect x="0.5" y="0.5" width="199" height="99" fill="#0E1014" fill-opacity="0.6" stroke="#25262C"/>
<path d="M37.1136 40.5455H39.1932V54.2841H39.3636L48.9091 40.5455H50.9545V58H48.8409V44.2955H48.6705L39.1591 58H37.1136V40.5455ZM68.2408 40.5455V58H66.1271V42.4205H57.3317V58H55.218V40.5455H68.2408ZM79.2543 40.5455H81.3338V54.2841H81.5043L91.0497 40.5455H93.0952V58H90.9815V44.2955H90.8111L81.2997 58H79.2543V40.5455ZM97.0518 58V44.9091H102.404C103.813 44.9091 104.933 45.2273 105.762 45.8636C106.592 46.5 107.006 47.3409 107.006 48.3864C107.006 49.1818 106.771 49.7983 106.299 50.2358C105.827 50.6676 105.222 50.9602 104.484 51.1136C104.967 51.1818 105.435 51.3523 105.89 51.625C106.35 51.8977 106.731 52.2727 107.032 52.75C107.333 53.2216 107.484 53.8011 107.484 54.4886C107.484 55.1591 107.313 55.7585 106.972 56.2869C106.631 56.8153 106.143 57.233 105.506 57.5398C104.87 57.8466 104.109 58 103.222 58H97.0518ZM98.9609 56.1591H103.222C103.915 56.1591 104.458 55.9943 104.85 55.6648C105.242 55.3352 105.438 54.8864 105.438 54.3182C105.438 53.642 105.242 53.1108 104.85 52.7244C104.458 52.3324 103.915 52.1364 103.222 52.1364H98.9609V56.1591ZM98.9609 50.3977H102.404C102.944 50.3977 103.407 50.3239 103.793 50.1761C104.18 50.0227 104.475 49.8068 104.68 49.5284C104.89 49.2443 104.995 48.9091 104.995 48.5227C104.995 47.9716 104.765 47.5398 104.305 47.2273C103.844 46.9091 103.211 46.75 102.404 46.75H98.9609V50.3977ZM114.381 58.3068C113.551 58.3068 112.798 58.1506 112.122 57.8381C111.446 57.5199 110.909 57.0625 110.511 56.4659C110.114 55.8636 109.915 55.1364 109.915 54.2841C109.915 53.5341 110.063 52.9261 110.358 52.4602C110.653 51.9886 111.048 51.6193 111.543 51.3523C112.037 51.0852 112.582 50.8864 113.179 50.7557C113.781 50.6193 114.386 50.5114 114.994 50.4318C115.79 50.3295 116.435 50.2528 116.929 50.2017C117.429 50.1449 117.793 50.0511 118.02 49.9205C118.253 49.7898 118.369 49.5625 118.369 49.2386V49.1705C118.369 48.3295 118.139 47.6761 117.679 47.2102C117.224 46.7443 116.534 46.5114 115.608 46.5114C114.648 46.5114 113.895 46.7216 113.349 47.142C112.804 47.5625 112.42 48.0114 112.199 48.4886L110.29 47.8068C110.631 47.0114 111.085 46.392 111.653 45.9489C112.227 45.5 112.852 45.1875 113.528 45.0114C114.21 44.8295 114.881 44.7386 115.54 44.7386C115.96 44.7386 116.443 44.7898 116.989 44.892C117.54 44.9886 118.071 45.1903 118.582 45.4972C119.099 45.804 119.528 46.267 119.869 46.8864C120.21 47.5057 120.381 48.3352 120.381 49.375V58H118.369V56.2273H118.267C118.131 56.5114 117.903 56.8153 117.585 57.1392C117.267 57.4631 116.844 57.7386 116.315 57.9659C115.787 58.1932 115.142 58.3068 114.381 58.3068ZM114.688 56.5C115.483 56.5 116.153 56.3438 116.699 56.0312C117.25 55.7188 117.665 55.3153 117.943 54.821C118.227 54.3267 118.369 53.8068 118.369 53.2614V51.4205C118.284 51.5227 118.097 51.6165 117.807 51.7017C117.523 51.7812 117.193 51.8523 116.818 51.9148C116.449 51.9716 116.088 52.0227 115.736 52.0682C115.389 52.108 115.108 52.142 114.892 52.1705C114.369 52.2386 113.881 52.3494 113.426 52.5028C112.977 52.6506 112.614 52.875 112.335 53.1761C112.063 53.4716 111.926 53.875 111.926 54.3864C111.926 55.0852 112.185 55.6136 112.702 55.9716C113.224 56.3239 113.886 56.5 114.688 56.5ZM132.813 50.5341V52.4091H125.586V50.5341H132.813ZM126.063 44.9091V58H124.052V44.9091H126.063ZM134.347 44.9091V58H132.336V44.9091H134.347ZM143.339 58.2727C142.157 58.2727 141.12 57.9915 140.228 57.429C139.342 56.8665 138.648 56.0795 138.148 55.0682C137.654 54.0568 137.407 52.875 137.407 51.5227C137.407 50.1591 137.654 48.9687 138.148 47.9517C138.648 46.9347 139.342 46.1449 140.228 45.5824C141.12 45.0199 142.157 44.7386 143.339 44.7386C144.521 44.7386 145.555 45.0199 146.441 45.5824C147.333 46.1449 148.026 46.9347 148.521 47.9517C149.021 48.9687 149.271 50.1591 149.271 51.5227C149.271 52.875 149.021 54.0568 148.521 55.0682C148.026 56.0795 147.333 56.8665 146.441 57.429C145.555 57.9915 144.521 58.2727 143.339 58.2727ZM143.339 56.4659C144.237 56.4659 144.975 56.2358 145.555 55.7756C146.134 55.3153 146.563 54.7102 146.842 53.9602C147.12 53.2102 147.259 52.3977 147.259 51.5227C147.259 50.6477 147.12 49.8324 146.842 49.0767C146.563 48.321 146.134 47.7102 145.555 47.2443C144.975 46.7784 144.237 46.5455 143.339 46.5455C142.441 46.5455 141.702 46.7784 141.123 47.2443C140.543 47.7102 140.114 48.321 139.836 49.0767C139.558 49.8324 139.418 50.6477 139.418 51.5227C139.418 52.3977 139.558 53.2102 139.836 53.9602C140.114 54.7102 140.543 55.3153 141.123 55.7756C141.702 56.2358 142.441 56.4659 143.339 56.4659ZM152.341 58V44.9091H157.693C159.102 44.9091 160.222 45.2273 161.051 45.8636C161.881 46.5 162.295 47.3409 162.295 48.3864C162.295 49.1818 162.06 49.7983 161.588 50.2358C161.116 50.6676 160.511 50.9602 159.773 51.1136C160.256 51.1818 160.724 51.3523 161.179 51.625C161.639 51.8977 162.02 52.2727 162.321 52.75C162.622 53.2216 162.773 53.8011 162.773 54.4886C162.773 55.1591 162.602 55.7585 162.261 56.2869C161.92 56.8153 161.432 57.233 160.795 57.5398C160.159 57.8466 159.398 58 158.511 58H152.341ZM154.25 56.1591H158.511C159.205 56.1591 159.747 55.9943 160.139 55.6648C160.531 55.3352 160.727 54.8864 160.727 54.3182C160.727 53.642 160.531 53.1108 160.139 52.7244C159.747 52.3324 159.205 52.1364 158.511 52.1364H154.25V56.1591ZM154.25 50.3977H157.693C158.233 50.3977 158.696 50.3239 159.082 50.1761C159.469 50.0227 159.764 49.8068 159.969 49.5284C160.179 49.2443 160.284 48.9091 160.284 48.5227C160.284 47.9716 160.054 47.5398 159.594 47.2273C159.134 46.9091 158.5 46.75 157.693 46.75H154.25V50.3977Z" fill="#656566"/>
</svg>
